# xmcd CD database file
#
# Track frame offsets:
#	150
#	28292
#	51240
#
# Disc length: 804 seconds
#
# Revision: 0
# Processed by: cddbd v1.5.1PL0 Copyright (c) Steve Scherf et al.
# Submitted via: CDex 1.51
#
DISCID=24032203
DTITLE=SING LIKE TALKING - Standing
DYEAR=1900
DGENRE=Japanese Pop
TTITLE0=Standing
TTITLE1=In The Rain
TTITLE2=I Will
EXTD=
EXTT0=
EXTT1=
EXTT2=
PLAYORDER=
